<?xml version="1.0" standalone="no"?>
<!DOCTYPE svg PUBLIC "-//W3C//DTD SVG 20010904//EN"
 "http://www.w3.org/TR/2001/REC-SVG-20010904/DTD/svg10.dtd">
<svg version="1.0" xmlns="http://www.w3.org/2000/svg"
 width="700.000000pt" height="700.000000pt" viewBox="0 0 700.000000 700.000000"
 preserveAspectRatio="xMidYMid meet">
<metadata>
Created by potrace 1.14, written by Peter Selinger 2001-2017
</metadata>
<g transform="translate(0.000000,700.000000) scale(0.100000,-0.100000)"
fill="#000000" stroke="none">
<path d="M942 6239 c-226 -57 -384 -198 -474 -423 l-33 -81 -1 -1550 c-1
-1691 -4 -1593 56 -1724 69 -147 165 -242 313 -311 128 -60 96 -58 1152 -66
534 -3 976 -6 983 -7 17 -1 15 -7 -7 -26 -10 -9 -83 -77 -162 -152 -268 -252
-234 -227 -325 -234 -187 -14 -292 -36 -398 -84 -169 -76 -298 -202 -379 -366
-68 -138 -82 -217 -56 -305 28 -94 136 -159 240 -145 57 8 137 57 156 95 6 14
29 63 51 110 46 101 78 141 141 178 108 63 25 59 1290 59 1221 0 1185 2 1279
-46 71 -36 162 -158 192 -256 20 -68 60 -104 143 -129 110 -32 211 15 266 124
31 61 17 175 -34 286 -78 170 -226 318 -400 400 -121 56 -196 74 -345 81 -98
5 -130 10 -148 24 -12 9 -84 75 -158 146 -75 70 -164 154 -198 185 l-61 57 40
-1 c22 -1 468 2 990 6 1056 8 1003 4 1153 78 146 72 255 198 317 370 l27 73 1
1280 c1 704 0 1398 -3 1542 l-5 261 -31 39 c-81 102 -231 114 -327 24 -62 -57
-61 -51 -63 -466 -1 -209 -5 -870 -8 -1470 -3 -600 -8 -1100 -10 -1113 -8 -38
-47 -99 -80 -123 -36 -27 98 -23 -1241 -35 -851 -7 -2597 -9 -3393 -4 -348 3
-365 4 -405 24 -55 28 -95 81 -106 141 -6 30 -9 625 -8 1485 l2 1435 26 50
c16 32 43 62 74 85 l49 35 421 2 c231 1 1290 5 2353 8 1068 3 1944 10 1957 15
61 23 127 109 140 180 14 82 -46 184 -136 230 -39 21 -46 21 -2394 24 -2207 2
-2359 1 -2423 -15z m2688 -4410 c160 -142 170 -152 164 -158 -7 -7 -560 -10
-586 -3 -13 3 19 40 130 148 l147 143 25 -22 c14 -13 68 -61 120 -108z"/>
</g>
</svg>
