<svg version="1.2" xmlns="http://www.w3.org/2000/svg" viewBox="0 0 406 407">
    <style>.a{fill:#fff}</style>
    <path class="a" d="m174.9 117.1h77.8 134.4c-27.6-59.3-82.7-99.7-144.1-112.5z"/>
    <path class="a" d="m142.5 271l-39-67.8-66.9-116c-38 54.4-46.3 123.1-24.9 183.8z"/>
    <path class="a" d="m114.1 184.8l39.1-67.7h0.1l70.1-115.6c-56.7-6.2-116.6 11-163.9 58.3-3.8 3.8-7.3 7.7-10.7 11.7z"/>
    <path class="a" d="m231.2 289.4h-78-133.9c9.7 20.7 23.1 40.2 40.2 57.3 31.1 31.1 67.6 49.2 105 56.3z"/>
    <path class="a" d="m291.9 221.5l-39.2 67.9h-0.1l-68.3 116.2c65.8 5.6 131.9-21.9 174.6-72.2z"/>
    <path class="a" d="m263.3 135.5l36.8 63.8 70.8 118.3c21.7-31.6 34.9-70.3 34.9-114.4 0-24.3-4-46.9-11.2-67.7z"/>
</svg>
